<?xml version="1.0" encoding="utf-8"?>
<!-- Generator: Adobe Illustrator 23.0.2, SVG Export Plug-In . SVG Version: 6.00 Build 0)  -->
<svg version="1.1" xmlns="http://www.w3.org/2000/svg" xmlns:xlink="http://www.w3.org/1999/xlink" x="0px" y="0px"
	 viewBox="0 0 612 792" style="enable-background:new 0 0 612 792;" xml:space="preserve">
<style type="text/css">
	.st0{fill:#5CAF88;stroke:#5CAF88;stroke-width:0.25;stroke-miterlimit:10;}
	.st1{fill:#53636F;stroke:#53636F;stroke-width:0.25;stroke-miterlimit:10;}
	.st2{fill:#5C4749;stroke:#5C4749;stroke-width:0.5;stroke-miterlimit:10;}
	.st3{fill:#836963;stroke:#846963;stroke-width:0.25;stroke-miterlimit:10;}
	.st4{fill:#5C4749;stroke:#5C4749;stroke-width:0.25;stroke-miterlimit:10;}
	.st5{fill:#6A544F;stroke:#6A544F;stroke-width:0.25;stroke-miterlimit:10;}
	.st6{fill:#836963;stroke:#846963;stroke-width:0.5;stroke-miterlimit:10;}
	.st7{fill:#705954;stroke:#70594A;stroke-width:0.5;stroke-miterlimit:10;}
	.st8{fill:#6F6260;}
	.st9{fill:#755C58;stroke:#755C58;stroke-width:0.5;stroke-miterlimit:10;}
	.st10{fill:#745B58;stroke:#755C58;stroke-width:0.5;stroke-miterlimit:10;}
	.st11{fill:#644E4B;stroke:#644E4B;stroke-width:0.25;stroke-miterlimit:10;}
	.st12{fill:#634D4B;stroke:#644E4B;stroke-width:0.25;stroke-miterlimit:10;}
	.st13{fill:#5E494A;}
	.st14{fill:#4E3C3E;}
	.st15{fill:#5C4749;}
	.st16{fill:#524041;}
	.st17{fill:#654F4C;stroke:#644E4B;stroke-width:0.25;stroke-miterlimit:10;}
	.st18{fill:#503E40;stroke:#4F3D3F;stroke-width:0.25;stroke-miterlimit:10;}
	.st19{fill:#4F3D3F;stroke:#4F3D3F;stroke-width:0.25;stroke-miterlimit:10;}
	.st20{fill:#503F40;stroke:#4F3D3F;stroke-width:0.25;stroke-miterlimit:10;}
	.st21{fill:#755C58;stroke:#755C58;stroke-width:0.25;stroke-miterlimit:10;}
	.st22{fill:#745C58;stroke:#755C58;stroke-width:0.5;stroke-miterlimit:10;}
	.st23{fill:#644E4B;stroke:#644E4B;stroke-width:0.5;stroke-miterlimit:10;}
	.st24{fill:#66504D;stroke:#644E4B;stroke-width:0.5;stroke-miterlimit:10;}
	.st25{fill:#503E3F;stroke:#4F3D3F;stroke-width:0.25;stroke-miterlimit:10;}
	.st26{fill:#513F40;stroke:#4F3D3F;stroke-width:0.25;stroke-miterlimit:10;}
	.st27{fill:#7F706B;stroke:#7F706B;stroke-width:0.25;stroke-miterlimit:10;}
	.st28{fill:#80706B;stroke:#7F706B;stroke-width:0.25;stroke-miterlimit:10;}
	.st29{fill:#81716C;stroke:#7F706B;stroke-width:0.25;stroke-miterlimit:10;}
	.st30{fill:#756662;stroke:#706662;stroke-width:0.25;stroke-miterlimit:10;}
	.st31{fill:#746562;stroke:#706662;stroke-width:0.25;stroke-miterlimit:10;}
	.st32{fill:#645957;stroke:#645957;stroke-width:0.25;stroke-miterlimit:10;}
	.st33{fill:#665B59;}
	.st34{fill:#6C605B;stroke:#6C605B;stroke-width:0.25;stroke-miterlimit:10;}
	.st35{fill:#5CAF88;}
	.st36{fill:#E0E1DE;stroke:#E0E1DE;stroke-width:0.5;stroke-miterlimit:10;}
	.st37{fill:#ECEFEE;stroke:#ECEFEE;stroke-width:0.25;stroke-miterlimit:10;}
	.st38{fill:#ECEFEE;}
	.st39{fill:#4F8B6F;stroke:#4F8B6F;stroke-width:0.25;stroke-miterlimit:10;}
	.st40{fill:#4A565E;stroke:#4A565E;stroke-width:0.25;stroke-miterlimit:10;}
	.st41{fill:#594546;stroke:#5C4749;stroke-width:0.25;stroke-miterlimit:10;}
</style>
<g id="图层_3">
	<polygon class="st0" points="200.6,396 201.9,418.8 306,424.9 481.3,381.1 305,369 	"/>
</g>
<g id="图层_2">
	<polygon class="st1" points="132.7,413.9 149.1,408.9 201.9,399.4 202.9,413.6 148.4,415 	"/>
</g>
<g id="图层_1">
	<g>
		<g>
			<path class="st2" d="M306.3,715.1c-52.9-0.7-107.1-2.5-161-8.2c-15.6-1.6-31.4-3-46.2-8.1c-15.2-5.2-29.9-12-40.7-24.9
				c-6.7-8-10.2-17.5-12.2-27.6c-1.3-6.3,3.2-10.3,7.8-13.4c2.9-2,3.9-3.4,3.3-7.5c-1-7.4,1.1-14.9,3.6-22c0.8-2.1,1.3-3.7-0.7-5.7
				c-2.5-2.5-1.4-5.5,0.9-7.5c1.8-1.6,2.1-3,1.8-5.2c-4.4-31-4.3-62.1-3.9-93.3c0.3-19,1.9-37.9,4.1-56.8c0.2-1.4,0.8-2.8-1-3.9
				c-4.4-2.8-3.5-6.5-0.8-9.7c1.4-1.6,1.3-2.6,0.7-4.3c-4.8-12.6-4.9-25.3-0.1-37.9c0.6-1.7,0.6-2.5-0.9-3.7c-3.6-2.7-2.8-5.7,0-8.4
				c1.5-1.4,2.7-2.3,2.2-4.9c-3.8-19.4-3.5-39.1-4.4-58.7c-1-21.3-0.4-42.6,1-63.9c0.7-10.6,1.8-21.2,2.8-31.8
				c0.2-2.4,0.5-4.5-1.9-6.1c-1.7-1.2-3-3.6-1.6-5.3c2.8-3.3,0.7-6.1,0.1-9.2c-1.5-7.5-3.2-14.6-8.8-20.6c-5.5-5.9-3.7-13.7-2.8-21
				c2.1-17.2,7-33.5,15.4-48.7c3-5.5,7.2-9.4,12.9-12c21.3-9.8,43.9-15.4,66.5-21.1c28.5-7.2,57.6-10.4,86.7-13.1
				c39.4-3.7,78.8-4.4,118.3-2.6c27.6,1.3,55.1,4,82.5,7.9c33.7,4.9,66.4,13.5,98.5,24.8c13.6,4.8,22.3,13.4,27.5,26.7
				c5.7,14.6,9.3,29.5,10.9,45c0.8,7.9-2.1,14.1-7.6,19.1c-3.4,3.1-5.6,6.3-5.9,11c-0.1,2.4-2,4.9-1.7,7.2
				c0.8,6.1-2.3,11.7-2.4,17.2c-0.1,12.6,1.9,25.2,2.8,37.8c1.8,25.5,1.3,50.9,0.1,76.4c-0.7,14-1,28-3.8,41.7
				c-0.5,2.3,1,2.8,2.1,3.9c3,2.9,3.9,6,0,8.8c-1.8,1.3-1.2,2.3-0.6,3.7c4.7,12.5,4.5,25-0.1,37.5c-0.7,1.8-0.8,3,0.8,4.7
				c2.7,3,3.3,6.8-0.7,9.3c-2.3,1.5-1.3,3.1-1.1,4.8c4.7,39.1,5,78.4,3.2,117.7c-0.5,10.5-1.9,20.9-3,31.3c-0.2,2.1-0.3,3.6,1.6,5.3
				c2.6,2.3,3.6,5.4,0.6,8.2c-1.7,1.5-1,2.8-0.5,4.4c2.5,7.9,4.8,15.9,3.7,24.4c-0.3,2,1.2,2.1,2.2,2.8c13.5,8.7,14.6,11.6,9.5,26.7
				c-5.4,15.8-16.7,25.8-31.2,34c-23.1,13.1-48.6,14.4-73.7,17.1C410.2,713.1,358.8,714.6,306.3,715.1z M107.1,195.3
				c-0.2,2.4,0.4,4.7-1.5,6c-3.2,2.1-2.5,5-2.3,7.9c0.9,10.1,1.9,20.2,2.7,30.3c1.9,25.1,1.8,50.3,0.7,75.4
				c-0.7,15.8-0.7,31.7-4.1,47.2c-0.5,2.5,0.3,3.5,1.9,5c2.9,2.5,3.9,5.6,0.3,8.4c-1.8,1.3-1.6,2.3-0.9,4.1
				c4.7,12.3,4.6,24.7,0.1,37c-0.7,1.9-1.3,3.2,0.6,5.2c2.7,2.9,3.3,6.7-0.8,9.3c-2.1,1.3-1.2,2.8-1.1,4.3
				c2.5,22.5,4.2,45.1,4.2,67.8c0.1,27.5-0.3,55-4.1,82.3c-0.3,2,0.2,3.3,1.7,4.7c2.6,2.4,3.5,5.4,0.4,8.3c-1.4,1.3-1.1,2.5-0.6,4
				c0.8,2.2,1.9,4.4,2,6.7c0.3,4.6,2.6,4.5,6.2,3.8c22.9-4.8,46-7.7,69.2-10c32.4-3.3,64.8-4.8,97.3-5.5c3.5-0.1,4.5-0.7,4-4.5
				c-0.8-5.6-1-11.3-1.1-16.9c-0.9-36.2-0.7-72.3,3.9-108.3c0.2-1.7,0.1-2.6-1.5-3.7c-3.8-2.6-3.2-6.2-0.8-9c1.6-1.9,1.7-3,0.9-5.1
				c-4.7-12.5-4.7-25,0.1-37.5c0.6-1.6,0.7-2.5-0.9-3.7c-3.8-2.9-2.7-6,0.3-8.8c1.2-1.1,2.3-1.8,1.9-4c-2.8-13.3-3-26.8-3.8-40.2
				c-2.3-37.8-1-75.6,2.9-113.2c0.3-3.1,1.1-6.2-2.3-8.4c-1.3-0.8-2-3-1.1-4c3.5-3.9,0.5-7.4-0.1-11.1c-0.4-2.4-1.5-3.2-4-3.3
				c-10.5-0.4-21-1.1-31.4-1.7C199.7,211.4,153.2,206.7,107.1,195.3z M508.9,205.4c0.1-0.5,0.1-1.7-1.1-2.7
				c-1.1-0.9-2.6-2.3-2.6-3.5c-0.1-3.7-2-3.1-4.5-2.5c-27.6,6.6-55.6,10.6-83.8,13.5c-27.5,2.8-55.2,4-82.8,5.5
				c-1.3,0.1-3.4-0.4-3.5,1.1c-0.3,4-4.6,7.6-1.1,12.1c1.5,1.9,0.6,4.4-1.3,5.8c-2.3,1.7-2.2,3.7-2,6.1c1,10.6,2.1,21.2,2.9,31.8
				c1.9,25.1,1.8,50.3,0.7,75.4c-0.7,15.8-0.8,31.7-4.1,47.2c-0.5,2.5,0.5,3.5,2,4.9c2.8,2.6,3.9,5.7,0.2,8.4
				c-1.8,1.4-1.5,2.4-0.9,4.1c4.6,12.3,4.6,24.7,0,37c-0.7,1.9-1.1,3.2,0.7,5.2c2.6,2.9,3.2,6.6-0.9,9.3c-1.4,0.9-1.3,1.9-1.2,3.4
				c1,10.4,2.1,20.9,2.9,31.3c2.3,31.5,1.9,62.9-0.1,94.4c-0.2,3,0,4.1,3.3,4.1c8.8,0,17.7,0.4,26.5,0.7
				c45.5,1.7,90.8,5.2,135.7,13.2c3.3,0.6,7.1,2.4,9.6,1.2c2.6-1.2,1.9-6,3.2-9c0.7-1.5,2-3-0.1-4.9c-3.1-2.7-2.2-5.8,0.4-8.3
				c1.5-1.4,2-2.7,1.8-4.7c-2-17.4-3.5-34.7-3.8-52.3c-0.7-32.4,0-64.6,3.8-96.8c0.3-2.5,0.6-4.4-2.1-6.3c-3-2.1-2.2-6,0.2-8.4
				c2-1.9,1.5-3.2,0.8-5.1c-4.6-12.3-4.6-24.7,0-37c0.6-1.7,1-2.8-0.8-4.1c-3.6-2.7-2.6-5.7,0.2-8.4c1.3-1.2,2.5-1.9,2.1-4.4
				c-4.7-26.9-4.5-54.1-4.9-81.2C504,256.4,506.2,231.3,508.9,205.4z"/>
		</g>
	</g>
	<g>
		<g>
			<path class="st3" d="M80,692.9c-18.7-6.5-30.4-19.6-36-38.4c0-0.2-0.1-0.3-0.1-0.5c-3.1-12-1.8-15.4,8.8-22.3
				c1.2-0.8,2.3-1.8,3.4-2.7c1.1-0.3,2.3-0.3,3.3-0.8c10.7-5.4,22.2-8.6,33.7-11.4c3.6-0.9,7.2-1.9,10.8-2.8
				c3.1,0.3,4.1-1.5,4.1-4.2c0.9,2.5,2.1,3.1,5.1,2.6c13.9-2.5,27.8-4.7,41.8-6.5c14.3-1.9,28.7-3.3,43-4.8c9.3-0.7,18.7-1.3,28-2
				c18.6-0.7,37.3-1.4,55.9-2.1c13.4,0,26.7,0,40.1,0c2.6-0.3,5.2-0.7,7.9-1c1.2,0.4,2.4,1,3.6,1.1c10,0.4,19.9,0.5,29.8,1
				c13.3,0.6,26.5,1.3,39.7,1.9c4.3,0.3,8.7,0.7,13,1c12.5,1.3,25,2.6,37.5,4c6.9,0.8,13.7,1.9,20.6,2.9c-1.9,0.1-3.8,0.3-5.8,0.4
				c1.4,10.3-1.9,19-7.2,27c-7.5,11.2-17.5,20-29,26.8c-6.1,3.6-12.2,8.4-20.1,7.9c-13.1-0.7-26.2-1.5-39.3-2
				c-16.5-0.5-32.9-1-49.4-1c-20.8,0-41.6,0.5-62.4,0.9c-14.3,0.3-28.6,0.7-42.9,1c-0.5,0-1,0-1.5,0.1c-14,1-28.1,1.9-42.1,2.9
				c-8.8,0.6-17.5,1.2-26.2,2.2c-11.5,1.4-23,2.7-34.3,5c-9.8,2-19.5,5.2-29.1,8C82.1,687.9,80.3,689.9,80,692.9z"/>
			<path class="st4" d="M80.1,691.9c0.3-3,2-5,4.8-5.8c9.7-2.8,19.3-6,29.1-8c11.3-2.3,22.8-3.6,34.3-5c8.7-1,17.5-1.5,26.2-2.2
				c14-1,28.1-2,42.1-2.9c0.5,0,1,0,1.5-0.1c14.3-0.3,28.6-0.8,42.9-1c20.8-0.4,41.6-0.9,62.4-0.9c16.5,0,32.9,0.4,49.4,1
				c13.1,0.4,26.2,1.3,39.3,2c0.6,0.3,1.1,0.8,1.7,0.9c11.6,0.7,23.1,1.4,34.7,2.1c4.8,0.3,9.6,0.5,14.3,1.1
				c9.3,1.2,18.6,2.8,27.9,3.8c12.6,1.3,24.9,3.8,36.6,8.5c2.7,1.1,4.5,4.3,6.8,6.6c-3.3,4.2-8.1,5.9-13,6.9
				c-14.3,3-28.7,6.1-43.2,8c-35,4.6-70.3,6.6-105.7,7.4c-33,0.8-66,2-98.9,1.2c-46.3-1-92.6-2.8-138.6-8.8c-14-1.8-27.8-5-41.7-7.9
				C88.2,697.9,83.4,696.2,80.1,691.9z"/>
			<path class="st5" d="M534,693c-2.2-2.3-4.1-5.5-6.8-6.6c-11.7-4.6-24-7.2-36.6-8.5c-9.3-1-18.6-2.6-27.9-3.8
				c-4.8-0.6-9.5-0.8-14.3-1.1c-11.6-0.7-23.1-1.4-34.7-2.1c-0.6,0-1.1-0.6-1.7-0.9c7.9,0.5,13.9-4.3,20.1-7.9
				c11.5-6.8,21.5-15.6,29-26.8c5.3-8,8.6-16.7,7.2-27c2-0.1,3.9-0.3,5.8-0.4c8.3,1.4,16.6,2.8,24.9,4.2c0.6,0.3,1.1,0.7,1.7,0.8
				c7.8,1.3,15.7,2.1,23.3,4c8.8,2.2,17.3,5.3,26,8c2.1,1.3,4.3,2.6,6.4,3.9c4.1,2.8,8.3,5.4,12.2,8.5c3,2.5,4,6.1,3.3,10
				c-4.2,21.7-15.9,37.4-36.9,45.5C534.7,693,534.3,692.9,534,693z"/>
		</g>
		<g>
			<path class="st2" d="M53.2,172.9c-2.1-2.9-4.2-5.9-6.2-8.9c-1.1-7.2,1.8-12.8,7.5-16.9c4.8-3.5,9.8-7.2,15.2-9.3
				c12.3-4.8,24.8-9.5,37.6-12.7c15.5-3.9,31.4-6.6,47.2-9.2c14.2-2.4,28.4-4.3,42.7-5.9c12.2-1.4,24.4-2.4,36.6-3
				c17.1-0.9,34.1-1.8,51.2-2c20.5-0.2,40.9,0.5,61.3,0.9c11.3,0.2,22.6,0.6,33.9,1.1c5.1,0.2,10.3,0.6,15.4,1.1
				c11.8,1.2,23.7,2.4,35.5,3.9c11.5,1.4,23,2.8,34.4,4.7c11.3,1.8,22.4,4.2,33.6,6.3c3.6,1,7.2,2,10.8,3
				c14.2,3.8,28.2,8.2,41.1,15.4c8.3,4.7,15.7,10,17.1,20.4c-1.6,5-4,9.5-8.7,12.4c-0.4-0.7-1.2-1.3-1.2-2c0-8.2-5.3-12.2-12-14.6
				c-12.2-4.3-24.5-4.2-36.4,0.7c-6.5,2.6-10.8,8.1-9.6,15.7c0.8,5,1.8,10.1,3.2,15c0.4,1.6,2.5,2.7,3.7,4c-2.7,1.7-5.3,3.4-8,5.1
				c-5.8,1.3-11.5,2.9-17.4,3.9c-13.9,2.4-27.7,4.6-41.6,6.9c-2.1-0.6-4.6-0.8-6.4-1.9c-12.5-8.5-25.9-15.3-39.8-21.1
				c-22-9.3-45.1-14.9-68.8-16.5c-19.3-1.3-38.7-1-57.9,2.7c-30.8,6-59.6,16.9-85.8,34.4c-2.1,1.4-4.8,1.7-7.2,2.5
				c-8.4-1.3-16.8-2.4-25.1-3.9c-12.7-2.4-25.3-5.2-38-7.9c-1.7-1-3.3-2.1-5-3.1c0-0.3,0-0.7,0-1c0.7-1,1.8-2,2.1-3.1
				c1.4-4.8,2.8-9.5,3.8-14.4c1.5-7.6-3.2-14.6-10.6-17.6c-9-3.7-18.4-3.6-27.5-2.6c-8,0.9-16.1,3.7-19,13
				C54.4,169.9,53.8,171.4,53.2,172.9z"/>
			<path class="st6" d="M499,123c-11.2-2.1-22.4-4.5-33.6-6.3c-11.4-1.8-22.9-3.3-34.4-4.7c-11.8-1.4-23.6-2.7-35.5-3.9
				c-5.1-0.5-10.2-0.9-15.4-1.1c-11.3-0.4-22.6-0.8-33.9-1.1c-20.5-0.4-40.9-1-61.3-0.9c-17.1,0.1-34.2,1-51.2,2
				c-12.2,0.7-24.4,1.6-36.6,3c-14.3,1.6-28.5,3.5-42.7,5.9c-15.8,2.6-31.7,5.3-47.2,9.2c-12.8,3.2-25.3,7.9-37.6,12.7
				c-5.5,2.1-10.4,5.8-15.2,9.3c-5.6,4.1-8.6,9.6-7.5,16.9c-0.7-2.3-2.1-4.7-2-7c0.9-22.1,6.5-43,17.8-62.2c2.5-4.2,6.1-6.9,10.4-9
				c17.6-8.6,36.4-13.9,55.3-18.6c16.6-4.1,33.3-8,50.2-10.7c16.7-2.7,33.7-4.1,50.6-5.8c31.7-3.2,63.4-4.2,95.3-3.5
				c33.1,0.8,66.1,3.5,99,7.6c22.5,2.8,44.5,8,66.4,13.3c0.5,0.1,0.9,0.5,1.3,0.7c-3.1,0.4-1.5,2.4-1.1,3.7
				c1.8,5.3,3.9,10.6,5.6,15.9c3.7,11.1,5.6,22.6,6.7,34.5C501,123,500,123,499,123z"/>
			<path class="st7" d="M499,123c1,0,2,0,3.4,0c-1.1-11.9-3-23.4-6.7-34.5c-1.8-5.3-3.8-10.6-5.6-15.9c-0.4-1.3-2.1-3.3,1.1-3.7
				c17.7,4.2,35,9.4,51.2,17.9c3.6,1.9,7,5.2,9.2,8.7c11.5,18.7,16.6,39.4,17.6,61.2c0.1,1.6-0.8,3.4-1.2,5
				c-1.4-10.4-8.8-15.7-17.1-20.4c-12.9-7.3-26.9-11.6-41.1-15.4C506.2,125,502.6,124,499,123z"/>
			<path class="st8" d="M395.7,212.1c-1.4,0.4-2.7,1.1-4.1,1.2c-11.8,0.6-23.6,1.2-35.4,1.8c-7.6,0-15.1,0-22.8,0
				c0.6-4.3,1.8-7.9,1.3-11.4c-0.4-3.3-2.5-6.4-3.8-9.6c0.7,0,1.3-0.1,2-0.1c13.4,1,26.3,4.3,38.8,8.7
				C379.9,205.5,387.8,209,395.7,212.1z"/>
			<path class="st8" d="M280,194c0.4,0.2,0.9,0.4,1.3,0.5c-4.4,5.8-4.3,12.3-3.5,19c0,0.3-0.3,0.6-0.8,1.5c-6.2,0-12.7,0-19.3,0
				c-12.9-0.7-25.8-1.4-38.7-2.1c-0.6,0-1.1-0.6-1.7-0.9c18.3-8.5,37.3-14.6,57.3-17.8C276.4,194.1,278.2,194.1,280,194z"/>
		</g>
		<g>
			<path class="st9" d="M61.9,587c-1-7.2-2.2-14.4-2.8-21.6c-2.6-31.4-2.8-62.8-0.8-94.2c0.8-12.8,2.5-25.5,3.8-38.2
				c0.6-0.2,1.3-0.2,1.9-0.5c10.7-5,21.7-5.8,33-2.5c1.4,10.1,3,20.3,4,30.4c1.3,12.7,2.2,25.4,2.9,38.1c0.3,4.4-0.7,8.9-0.9,13.4
				c-0.4,12.8-0.4,25.6-1.1,38.4c-0.5,9.2-1.8,18.4-3.1,27.6c-0.9,6.5-1.2,6.5-8.1,5.3c-1-0.2-2,0-3-0.1
				C78.8,582.3,70.3,584.4,61.9,587z"/>
			<path class="st9" d="M58,375.1c-2.2-2.9-0.7-5.2,1.5-6.8c2.2-1.6,2.5-3.2,2.2-5.9c-1.4-11.5-2.8-23.1-3.6-34.7
				c-0.9-12.1-1.7-24.3-1.5-36.4c0.3-18.5,1.3-36.9,2.2-55.4c0.4-8.5,1.4-16.9,2.2-25.3c0.2-1.6,0.6-3.2,0.9-4.8
				c1,1.6,1.8,3.5,3.2,4.6c7.3,5.4,15,10.3,22.1,15.9c3.7,2.9,8.4,4.9,9.5,10.8c2.9,14.6,4.8,29.3,5.3,44.1
				c0.4,11.1,0.1,22.3,0.1,33.4c0,1.5,0,3-0.2,4.5c-0.9,7.9-1.8,15.7-2.9,23.5c-0.8,6.2-2,12.3-3,18.5c-0.3,0-0.6,0-1,0
				c-8.8-3.3-17.6-2.7-26.4-0.1c-2.1,0.6-3.7,2.7-5.6,4.1c0.8,1,1.6,1.9,2.3,2.9c-0.8,1.1-1.6,2.1-2.4,3.2
				C61.3,372.4,59.6,373.7,58,375.1z"/>
			<path class="st9" d="M61.1,419c-5.8-12.2-5.8-24.6-1.4-37.2c0.5-1.5,0.7-3.1,1.1-4.7c11.1-6.8,22.9-7.8,35.3-4.2
				c0.3,0.3,0.7,0.7,1,1c0.6,1.5,1.3,3,1.7,4.6c2.7,11.4,2.1,22.9,1.1,34.4c-0.3,2.8-1.4,4.4-5.3,3.5c-11-2.8-21.9-1.5-32.4,2.6
				C61.7,419,61.4,419,61.1,419z"/>
			<path class="st9" d="M104.4,613.6c-3.6,0.9-7.2,1.9-10.8,2.8c-11.6,2.8-23,6-33.7,11.4c-1,0.5-2.2,0.5-3.3,0.8
				c-0.3-2.5-1.2-5.2-0.7-7.6c1.2-6.4,3-12.7,4.6-19.1c0.2-0.7,0-1.6,0-2.3c2.7-0.7,5.4-1.4,8.1-2.2c9.6-2.6,19.3-2.8,28.8,0.2
				c0.3,0.3,0.7,0.7,1,1c1,4.3,1.8,8.6,3.1,12.8C101.7,612.3,103.4,612.9,104.4,613.6z"/>
			<path class="st9" d="M62,419c0.6,0.3,1.5,1.1,1.9,0.9c10.1-3.9,20.4-3.6,30.8-1.9c2.1,0.3,4.5,0.3,3.9,3.7
				c-0.6,3.4-2.9,3.9-5.5,3.1c-10.8-3.2-20.8-0.5-30.7,3.6c-1.3,0.5-2.3,1.8-3.4,2.7c-2.3-3.1-1.6-6,0.7-8.8c0.7-0.9,1-2.2,1.4-3.3
				C61.4,419,61.7,419,62,419z"/>
			<path class="st9" d="M62,589c8.8-4.2,18.2-4.4,27.6-4c2.3,0.1,4.5,0.6,7.1,1c-0.7,2.3-1.2,4.1-1.7,6c-5.4-0.3-10.8-0.6-16.2-1
				c-6.4-0.5-11.9,1.9-17.3,4.9c-1.1,0.6-1.7,2.1-2.5,3.2c-3.1-2.3-1.9-4.8-0.2-7.2C59.6,590.8,60.9,590,62,589z"/>
			<path class="st10" d="M93,362c2.7,0.2,3.5,2.1,2.8,4.1c-0.3,1-2.7,2.1-3.7,1.8c-10.3-3.5-19.6,0.4-29.1,3.2
				c0.8-1,1.6-2.1,2.4-3.2c-0.8-0.9-1.6-1.9-2.3-2.9c0.6-0.1,1.4-0.1,1.9-0.5C73.9,359.6,83.4,360.4,93,362z"/>
			<g>
				<path class="st11" d="M96,361c1-6.1,2.1-12.3,3-18.5c1.1-7.8,1.9-15.7,2.9-23.5c0.2-1.5,0.2-3,0.2-4.5c0-11.1,0.3-22.3-0.1-33.4
					c-0.5-14.8-2.4-29.5-5.3-44.1c-1.2-5.9-5.8-7.9-9.5-10.8c-7.1-5.6-14.8-10.5-22.1-15.9c-1.4-1-2.1-3-3.2-4.6
					c-0.3-0.6-0.6-1.1-0.8-1.7c2-0.8,4-1.6,5.9-2.5c13-5.9,25.5-5.4,37.1,3.4c0.3,1.6,0.8,3.2,0.9,4.9c1.4,16.7,2.8,33.4,4.2,50.1
					c0,12.3,0.2,24.6-0.1,36.8c-0.5,17.1-1.4,34.1-2.1,51.1c-1,5-2,10-3,15C101.3,362.3,98.6,361.7,96,361z"/>
				<path class="st11" d="M53.2,172.9c0.5-1.5,1.2-3,1.6-4.6c2.9-9.3,11-12.1,19-13c9.1-1.1,18.5-1.1,27.5,2.6
					c7.3,3,12.1,10,10.6,17.6c-0.9,4.9-2.4,9.6-3.8,14.4c-0.3,1.1-1.4,2.1-2.1,3.1c-0.4-0.5-0.7-1.2-1.2-1.5
					c-8.8-5.5-18.5-6.7-28.5-4.9c-4.2,0.7-8.2,2.9-12.3,4.5c-1.5,0.7-3,1.4-4.5,2.1c-1.2-4.1-2.4-8.2-3.7-12.3
					C55,178.2,54.1,175.6,53.2,172.9z"/>
				<path class="st11" d="M61.9,587c8.4-2.6,16.9-4.7,25.9-4c1,0.1,2,0,3,0.1c6.8,1.1,7.1,1.2,8.1-5.3c1.3-9.2,2.6-18.3,3.1-27.6
					c0.7-12.8,0.7-25.6,1.1-38.4c0.2-4.5,1.1-8.9,0.9-13.4c-0.7-12.7-1.6-25.4-2.9-38.1c-1-10.2-2.7-20.3-4-30.4l0,0
					c2.6,1.2,4.9,3.2,8.1,2.1c-0.4,0.7-1.2,1.4-1.1,2.1c0.5,4.7,1.3,9.4,1.9,14c1.1,21.3,2.1,42.6,3.2,63.9
					c-0.3,8.8-0.3,17.6-0.9,26.3c-1,15.7-2.2,31.4-3.6,47.1c-0.2,2.5-0.3,4.1,1.9,6c2.3,2,3.8,4.8,0.5,7.6c-3.3-2-6.7-4-10-6
					c-0.7-0.3-1.3-0.7-2-1c0.5-1.8,1.1-3.6,1.7-6c-2.7-0.4-4.9-0.9-7.1-1c-9.5-0.5-18.8-0.3-27.6,4C61.9,588.3,61.9,587.7,61.9,587z
					"/>
				<path class="st12" d="M62,419c10.6-4.1,21.4-5.3,32.4-2.6c3.9,1,5.1-0.6,5.3-3.5c1-11.5,1.7-23-1.1-34.4
					c-0.4-1.6-1.1-3.1-1.7-4.6c2.7,1,5.5,2.1,8.2,3.1c0.3,1.4,0.3,2.9,0.8,4.2c4.2,10.8,4.2,21.7,0.9,32.6c-0.7,2.3-1.6,4.6-2.4,6.8
					c4.6,4.7,4.9,7.4,1.4,11c-2.4-2-4.7-3.9-7.9-6.6c-0.5,2.5-0.8,3.7-1,4.9l0,0c-11.3-3.3-22.3-2.5-33,2.5
					c-0.6,0.3-1.3,0.3-1.9,0.5c-1-0.6-2.1-1.3-3.1-1.9c1.1-0.9,2.1-2.1,3.4-2.7c9.9-4,20-6.8,30.7-3.6c2.6,0.8,4.9,0.3,5.5-3.1
					c0.6-3.4-1.9-3.4-3.9-3.7c-10.4-1.7-20.7-2-30.8,1.9C63.5,420.1,62.7,419.3,62,419z"/>
				<path class="st11" d="M59.5,193.2c1.5-0.7,3-1.4,4.5-2.1c1.1-0.2,2.2-0.4,3.4-0.7c8-1.6,15.8-5.2,24.1-2.3
					c4.9,1.7,9.7,3.9,14.5,5.9c1.7,1,3.3,2.1,5,3.1c-0.7,0.5-1.6,0.8-2,1.4c-1.1,1.5-1.9,3.1-2.9,4.6c-0.9-1.3-1.5-3-2.7-3.9
					c-11.4-8.3-29.7-7.2-40.8-0.9c-1.5,0.8-2.5,2.6-3.7,3.9c-2.5-2-2.3-4.1-0.6-6.5C58.9,195,59.1,194,59.5,193.2z"/>
				<path class="st13" d="M96,373c-12.3-3.6-24.1-2.6-35.3,4.2c-0.9-0.7-1.9-1.4-2.8-2.1c1.7-1.4,3.4-2.7,5-4.1
					c9.5-2.8,18.9-6.7,29.1-3.2c1,0.3,3.3-0.8,3.7-1.8c0.8-2-0.1-3.9-2.8-4.1c0.7-0.3,1.3-0.7,2-1c0.3,0,0.6,0,1,0
					c2.7,0.7,5.3,1.4,8,2c-0.4,2.4,0.7,3.8,2.5,5.3c3.3,2.8,3.2,4.5,0.6,7.6c-1.7-5.1-6.5-5-10.7-6.9C96.1,370.8,96.1,371.9,96,373z
					"/>
				<path class="st14" d="M58.9,202.3c1.2-1.3,2.2-3.1,3.7-3.9c11.2-6.3,29.4-7.4,40.8,0.9c1.2,0.9,1.8,2.6,2.7,3.9
					c-0.7,0.6-1.4,1.3-2.1,1.9c-11.7-8.9-24.1-9.3-37.1-3.4c-1.9,0.9-3.9,1.6-5.9,2.5C60.3,203.4,59.6,202.8,58.9,202.3z"/>
				<path class="st15" d="M59,599.1c0.8-1.1,1.4-2.6,2.5-3.2c5.4-3,10.9-5.3,17.3-4.9c5.4,0.4,10.8,0.7,16.2,1c0.7,0.3,1.3,0.7,2,1
					c0,1.7,0,3.3,0,5c-9.6-3-19.2-2.8-28.8-0.2c-2.7,0.7-5.4,1.4-8.1,2.2C59.7,599.7,59.3,599.4,59,599.1z"/>
				<path class="st16" d="M106,194c-4.8-2-9.6-4.2-14.5-5.9c-8.3-2.9-16.1,0.7-24.1,2.3c-1.1,0.2-2.2,0.4-3.4,0.7
					c4.1-1.5,8-3.7,12.3-4.5c10-1.7,19.7-0.6,28.5,4.9c0.5,0.3,0.8,1,1.2,1.5C106,193.3,106,193.7,106,194z"/>
				<path class="st17" d="M105,601c1,2.9,2.1,5.9,3.1,8.8c0,2.8-1,4.5-4.1,4.2c-1-0.7-2.7-1.3-2.9-2.3c-1.3-4.2-2.1-8.5-3.1-12.8
					C100.3,599.7,102.7,600.3,105,601z"/>
				<path class="st11" d="M93,362c-9.6-1.6-19.1-2.4-28.1,2.5c-0.6,0.3-1.3,0.3-1.9,0.5c1.9-1.4,3.5-3.5,5.6-4.1
					c8.7-2.5,17.6-3.1,26.4,0.1C94.3,361.3,93.7,361.7,93,362z"/>
				<path class="st18" d="M107,375.9c-0.6,0.4-1.2,0.8-1.7,1.2c-2.7-1-5.5-2.1-8.2-3.1c-0.3-0.3-0.7-0.7-1-1c0.1-1.1,0.1-2.2,0.2-4
					C100.4,371,105.2,370.8,107,375.9z"/>
				<path class="st19" d="M105,601c-2.3-0.7-4.7-1.3-7-2c-0.3-0.3-0.7-0.7-1-1c0-1.7,0-3.3,0-5c3.3,2,6.7,4,10,6
					C106.3,599.6,105.7,600.3,105,601z"/>
				<path class="st20" d="M106,431.7c-0.2,0.3-0.5,0.4-0.8,0.4c-3.2,1.2-5.5-0.9-8.1-2.1c0.3-1.2,0.5-2.4,1-4.9
					C101.3,427.8,103.6,429.7,106,431.7z"/>
			</g>
		</g>
		<g>
			<path class="st9" d="M499,612.1c2.5,0.3,4.4-0.3,4.8-3.3c0.5-3,1.4-5.9,2.1-8.8c1.3-0.3,2.6-0.4,3.8-0.9c7.7-3,15.8-3.7,24-3
				c3.5,0.3,6.8,1.9,10.2,2.9c4.8,8,5.4,17,6,26c-8.7-2.7-17.2-5.8-26-8c-7.6-1.9-15.5-2.7-23.3-4
				C500.1,612.9,499.6,612.4,499,612.1z"/>
			<path class="st21" d="M505,376c-2.7-3.4-2.8-5.1,0.5-7.8c2.1-1.7,2.5-3.2,2.2-5.9c-1.4-11.6-2.5-23.3-3.7-35
				c-0.4-3.8-0.6-7.6-0.9-11.4c0-4.5,0-8.9,0-13.4c0-15.2-0.1-30.4-0.1-45.6c1-12.6,2.1-25.3,3.1-37.9c0.1-1.4,0.6-2.9,0.9-4.3
				c1.8,1.8,3.3,3.9,5.4,5.3c8.3,5.4,16.8,10.7,25.3,15.7c3.8,2.3,5.3,5,5.5,9.6c0.5,11.9,2,23.7,2.7,35.5c0.4,6.6,0.1,13.3,0.1,20
				c0,8,0.3,16,0,24c-0.5,12.1-1.3,24.1-2,36.2l0,0c-0.7,0-1.4,0-2-0.1c-8.3-2.5-16.6-2.4-25-0.8c-3.1,0.6-5.7,2.2-7.7,5
				c11.3-5.6,22.4-5,33.7-2.1c0.5,0.8,1.3,1.6,1.6,2.5c1,2.6,0,3.8-2.8,3.3c-1.9-0.3-3.9-0.8-5.8-1.3c-10.2-2.8-19.4,0.6-28.4,4.8
				C506.5,372.8,505.9,374.8,505,376z"/>
			<path class="st9" d="M502.9,518c0-1.3,0-2.7,0-4c0.3-9.3,0.2-18.6,0.9-27.9c1.2-17.7,2.9-35.4,4.3-53.1c1.4-0.5,2.8-1,4.1-1.6
				c9.8-4.3,19.7-4.8,29.8-1.4c0.7,5.7,1.4,11.4,2.2,17.2c0.5,3.9,1.4,7.8,1.7,11.7c0.5,6.1,0.9,12.2,1.1,18.3
				c0.7,22.4,1.8,44.7,1.8,67.1c0,13.5-1.7,26.9-2.7,41c-13.6-4.1-26-2.4-38.3,1.7c-1-7.5-2.4-15.1-2.9-22.7
				C504,548.9,503.6,533.5,502.9,518z"/>
			<path class="st9" d="M505,599.1c-3.1-2.3-1.9-4.8-0.2-7.2c0.8-1.2,2.1-2,3.2-2.9c9-4.4,18.5-4.4,28.2-3.9
				c3.2,0.2,6.4,1.1,10.1,1.9c-0.9,2.5-1.6,4.3-2.2,6.1c-2.4-0.5-4.8-1.3-7.2-1.5c-10-1.1-19.9-1.5-28.9,4.1
				C506.7,596.4,506,597.9,505,599.1z"/>
			<path class="st9" d="M507.1,419c-5.7-12.2-5.7-24.6-1.4-37.2c0.5-1.5,0.7-3.1,1.1-4.7c7.2-4.3,15-6.9,23.4-6.1
				c4.7,0.5,9.2,1.9,13.8,2.9c-1.7,5.3,1.8,9.9,2,14.9c0.5,9.4,0.9,18.8,1.5,29.2c-13.9-4.2-26.8-4-39.5,0.9
				C507.7,419,507.4,419,507.1,419z"/>
			<path class="st22" d="M507.1,419c0.3,0,0.6,0,1,0c0.4,2.8,1.9,0.9,2.8,0.6c10-3.2,20.1-3.6,30.2-1.4c1.4,0.3,3.4,1.4,3.7,2.5
				c1,3-0.3,4.8-3.8,4.3c-4.8-0.3-9.6-1.4-14.2-0.8c-5.9,0.7-11.8,2.6-17.5,4.3c-1.3,0.4-2.1,2.1-3.2,3.3c-2.9-2.9-3.1-5.9-0.8-9.1
				C506,421.6,506.5,420.2,507.1,419z"/>
			<g>
				<path class="st23" d="M550,205c0.7,4.9,1.4,9.9,1.9,14.8c3.4,31.5,4.1,63.1,2.7,94.7c-0.7,14.8-2.3,29.5-3.5,44.2
					c-0.1,1.5-0.7,2.9-1.1,4.3c-2-0.7-4-1.3-6-2c0.7-12.1,1.5-24.1,2-36.2c0.3-8,0.1-16,0-24c0-6.7,0.3-13.3-0.1-20
					c-0.7-11.9-2.2-23.7-2.7-35.6c-0.2-4.6-1.7-7.3-5.5-9.6c-8.6-5-17-10.3-25.3-15.7c-2.1-1.3-3.6-3.5-5.4-5.3
					c0-3.6,0.1-7.2,0.1-10.7c2-0.8,4-1.6,5.9-2.5C525.9,195.7,538.3,196.1,550,205z"/>
				<path class="st23" d="M507,193c-1.3-1.3-3.3-2.4-3.7-4c-1.4-4.9-2.4-9.9-3.2-15c-1.1-7.6,3.1-13,9.6-15.7
					c11.9-4.9,24.3-5,36.4-0.7c6.7,2.4,12,6.4,12,14.6c0,0.7,0.8,1.3,1.2,2c-1.1,2.3-2.4,4.6-3.3,6.9c-1.4,4-2.6,8.1-3.9,12.1
					c-0.7-0.7-1.2-1.6-2-2.1c-8.7-5.2-18.2-6.3-27.8-4.6c-4.3,0.7-8.2,2.9-12.4,4.5C509,191.7,508,192.3,507,193z"/>
				<path class="st23" d="M551.1,432.1c-0.3,1.5-1,3.1-0.8,4.6c4,30.9,5.2,62,4.4,93.1c-0.5,19.1-1.5,38.2-4.3,57.1
					c-0.2,1.3,0.8,3,1.8,4c2.9,3.3,3.1,4.6,0.7,8.1c-2.7-1.7-5.3-3.3-8-5c-0.3-0.3-0.7-0.7-1-1c0.7-1.8,1.3-3.5,2.2-6.1
					c-3.8-0.7-6.9-1.7-10.1-1.9c-9.6-0.5-19.2-0.4-28.1,3.9c0-0.7,0-1.3-0.1-2c12.3-4.1,24.7-5.8,38.3-1.7c1-14.1,2.7-27.6,2.7-41
					c0-22.4-1.1-44.7-1.8-67.1c-0.2-6.1-0.5-12.2-1.1-18.3c-0.3-3.9-1.2-7.8-1.7-11.7c-0.8-5.7-1.5-11.4-2.2-17.2c0.3,0,0.7,0,1,0
					C545.6,431.2,548,433.3,551.1,432.1z"/>
				<path class="st23" d="M551.2,377.1c0.9,3.1,1.9,6.2,2.6,9.4c2.5,11.7,1.9,23.1-3.3,33.9c4.7,5.3,5,7.7,1.5,11.3
					c-2-1.6-4-3.1-6-4.7c-1.7-0.7-3.3-1.3-5-2c3.5,0.5,4.8-1.3,3.8-4.3c-0.4-1.1-2.3-2.2-3.7-2.5c-10.2-2.2-20.3-1.8-30.2,1.4
					c-0.9,0.3-2.4,2.2-2.8-0.6c12.7-4.9,25.6-5.1,39.5-0.9c-0.5-10.4-1-19.8-1.5-29.2c-0.3-5-3.7-9.6-2-14.9c0.3,0,0.7,0,1,0
					C547.1,375,549.2,376.1,551.2,377.1z"/>
				<path class="st11" d="M507,193c1-0.7,2-1.3,3-2c1.1-0.2,2.2-0.4,3.4-0.7c8-1.6,15.8-5.2,24.1-2.3c5,1.7,9.7,4,14.6,6
					c3.9,4.7,3.9,5.4,0,9.1c-0.9-1.3-1.5-3-2.7-3.9c-11.5-8.3-29.7-7.2-40.8-0.9c-1.5,0.8-2.5,2.6-3.7,3.9c-2-1.3-1.7-6-5.9-4.2
					C501.7,196.4,504.3,194.7,507,193z"/>
				<path class="st13" d="M545,374c-0.3,0-0.7,0-1,0c-4.6-1-9.2-2.5-13.8-2.9c-8.5-0.8-16.2,1.8-23.4,6.1c-0.6-0.4-1.2-0.8-1.8-1.1
					c0.9-1.3,1.5-3.2,2.7-3.8c9-4.1,18.2-7.6,28.4-4.8c1.9,0.5,3.8,0.9,5.8,1.3c2.8,0.5,3.8-0.7,2.8-3.3c-0.3-0.9-1.1-1.6-1.6-2.5
					c0.3-0.7,0.7-1.3,1-2l0,0c2,0.7,4,1.3,6,2c-0.5,2.3,0.7,3.8,2.4,5.3c3.3,2.8,3.2,4.4,0.6,7.6c-1.6-1.6-2.9-3.6-4.8-4.6
					C546,370.2,544.8,371.6,545,374z"/>
				<path class="st14" d="M504.9,202.3c1.2-1.3,2.2-3.1,3.7-3.9c11.1-6.3,29.4-7.4,40.8,0.9c1.2,0.9,1.8,2.6,2.7,3.9
					c-0.7,0.6-1.4,1.3-2,1.9c-11.7-8.9-24.1-9.3-37.1-3.5c-1.9,0.9-3.9,1.6-5.9,2.5C506.3,203.4,505.6,202.8,504.9,202.3z"/>
				<path class="st24" d="M556.4,628.9c-2.1-1.3-4.3-2.6-6.4-3.9c-0.6-9-1.2-18-6-26h0.5h0.5c2,0.7,4,1.3,6,2
					C555.1,609.8,557.3,619.1,556.4,628.9z"/>
				<path class="st16" d="M552,194c-4.8-2-9.6-4.2-14.6-6c-8.3-2.9-16.2,0.7-24.1,2.3c-1.1,0.2-2.2,0.4-3.4,0.7
					c4.1-1.6,8.1-3.8,12.3-4.5c9.7-1.7,19.2-0.6,27.8,4.6c0.8,0.5,1.3,1.4,2,2.1C552.3,193.5,552.2,193.8,552,194z"/>
				<path class="st25" d="M551,601c-2-0.7-4-1.3-6-2c0-1.7,0-3.3,0-5c2.7,1.7,5.3,3.3,8,5C552.3,599.6,551.7,600.3,551,601z"/>
				<path class="st26" d="M545,374c-0.2-2.4,1-3.8,3.2-2.7c1.9,1,3.2,3,4.8,4.6c-0.6,0.4-1.2,0.8-1.7,1.2
					C549.2,376.1,547.1,375,545,374z"/>
				<path class="st19" d="M546,427c2,1.6,4,3.1,6,4.7c-0.2,0.3-0.5,0.4-0.8,0.4c-3.2,1.2-5.5-0.9-8.1-2.1
					C542.7,427.7,543.8,426.8,546,427z"/>
				<path class="st15" d="M505,599.1c1-1.2,1.8-2.7,3-3.5c9-5.6,18.9-5.2,28.9-4.1c2.4,0.3,4.8,1,7.2,1.5c0.3,0.3,0.7,0.7,1,1
					c0,1.7,0,3.3,0,5h-0.5H544c-3.4-1-6.8-2.6-10.2-2.9c-8.1-0.7-16.2,0-24,3c-1.2,0.5-2.5,0.6-3.8,0.9
					C505.7,599.7,505.3,599.4,505,599.1z"/>
				<path class="st15" d="M542,430c-10.1-3.4-20-2.9-29.8,1.4c-1.4,0.6-2.7,1.1-4.1,1.6c-0.7-0.4-1.4-0.8-2-1.2
					c1-1.1,1.9-2.9,3.2-3.3c5.8-1.7,11.6-3.6,17.5-4.3c4.6-0.6,9.5,0.5,14.2,0.8c1.7,0.7,3.3,1.3,5,2c-2.3-0.2-3.3,0.8-3,3
					C542.7,430,542.3,430,542,430z"/>
				<path class="st23" d="M543,363c-11.3-3-22.4-3.5-33.7,2.1c2-2.8,4.6-4.5,7.7-5c8.4-1.6,16.8-1.6,25,0.8c0.6,0.2,1.3,0.1,2,0.1
					C543.7,361.7,543.3,362.3,543,363z"/>
			</g>
		</g>
		<g>
			<path class="st27" d="M281.9,597c-3.2-43.8-2.7-87.4,3.2-131c5.8-2.5,11.6-3.9,18-4.4c5.6-0.5,10.7-0.5,15.9,1.5c0,1-0.1,2,0.2,3
				c3.8,15,5.1,30.3,5.6,45.6c0.6,17.7-0.3,35.5-0.8,53.3c-0.3,10.7-1.3,21.4-1.9,32.2C308.6,597,295.3,597,281.9,597z"/>
			<path class="st28" d="M304.1,369c-0.4,0-0.8,0-1.1,0c-7,1.6-14.1,3.2-21.1,4.8c-0.9-16.9-2.4-33.9-2.4-50.8
				c0-18.1,1.4-36.2,2.4-54.3c0.6-10.6,1.4-21.1,2.2-31.7c2.5-1.1,5.2-2,7.6-3.3c4.1-2.2,7.8-1.7,11.1,1.5c0.7,0.7,1.5,1.2,2.3,1.8
				l0,0c0,43.7,0,87.4,0,131.1C304.7,368.4,304.4,368.7,304.1,369z"/>
			<path class="st27" d="M280,425c8.5,0.6,17.1,1.1,25.6,1.6c0.8,0,1.5-0.4,2.3-0.7c0.7,0,1.4,0,2.1-0.1c4-1,8-1.9,12-2.9
				c-0.1,8.9,0.6,17.8-2.5,26.9c-10-3.1-19.7-1.6-29.5,0.1c-2.3,0.4-4.7,0.8-5,3.9c-0.4,0.3-0.9,0.7-1.3,1c0-1,0.4-2.1,0-2.9
				C279.7,443.4,279.4,434.3,280,425z"/>
			<path class="st29" d="M280.8,221.1c1.5,0.7,3,1.4,4.9,2.3c-0.9,1-1.6,1.7-2.7,3c3.1-0.5,6.5-2.9,7.7,1.8c-3,2.3-7.7,2.5-8.8,7.1
				c-0.5-1.6-2-4-1.5-4.6C283.4,227.4,281.2,224.3,280.8,221.1z"/>
			<path class="st27" d="M307,239c4.2,3.1,8.7,5.9,12.6,9.3c1.5,1.3,2,4.1,2.3,6.3c1.2,9.6,2.2,19.3,3.1,29
				c1.1,11.8,2.3,23.6,2.9,35.5c0.3,7.1-0.5,14.2-0.7,21.3c-0.1,2.8,0,5.6-0.1,8.5c-0.3,5.4-0.2,11-1.4,16.2c-0.6,3,0.4,3.8,2.4,4.8
				c-7-0.6-14-1.2-21-1.8C307,325,307,282,307,239z"/>
			<g>
				<path class="st30" d="M322,597c0.7-10.7,1.6-21.4,1.9-32.2c0.5-17.8,1.4-35.5,0.8-53.3c-0.5-15.3-1.8-30.6-5.6-45.6
					c-0.2-1-0.1-2-0.2-3l0,0c3,0.7,6.1,1.4,9.1,2.1c-0.3,1.5-1,3.1-0.9,4.6c1.3,16.7,3,33.4,3.8,50.2c0.7,13.4,0.8,26.9,0.6,40.4
					c-0.2,11.9-1.2,23.9-1.9,35.8C327.2,596.3,324.6,596.7,322,597z"/>
				<path class="st30" d="M284,237c-0.7-0.6-1.4-1.2-2.1-1.8c1.1-4.6,5.8-4.8,8.8-7.1c-1.2-4.7-4.6-2.3-7.7-1.8c1.2-1.3,1.9-2,2.7-3
					c-1.9-0.9-3.4-1.6-4.9-2.3c-0.9-2.8-2.1-4.6-5.8-4.5c-5.7,0.1-11.5-0.9-17.3-1.4c6.5,0,13.1,0,19.3,0c0.5-1,0.8-1.3,0.8-1.5
					c-0.8-6.7-0.9-13.3,3.5-19c-0.4-0.2-0.9-0.4-1.3-0.5c2.7-0.3,5.4-0.6,8.1-1c5.7,0,11.3,0.1,17,0.1c0,8.4,0,16.8,0,25
					c-6.3,1.7-11.9,3.2-17.5,4.7c0.1,0.4,0.2,0.7,0.3,1c5.5-1.3,11-2.6,16.4-3.9c1.3,6.4,0.9,6.9-4.8,7.1c-2,0.1-3.9,0.6-6.5,1
					c3.4,5,8.2,1.6,12,3.9c0,1.5,0,3.3,0,5.1c-0.8-0.6-1.6-1.1-2.3-1.8c-3.4-3.2-7-3.7-11.1-1.5C289.1,235,286.5,235.9,284,237z"/>
				<path class="st30" d="M333,194c-0.7,0-1.3,0.1-2,0.1c1.4,3.2,3.4,6.3,3.8,9.6c0.4,3.4-0.8,7.1-1.3,11.4c7.6,0,15.2,0,22.8,0
					c-6.3,0.6-12.5,1.5-18.8,1.5c-3.9,0-5.7,1.3-6.3,5c-0.3,1.6-1.3,3-1.9,4.5c-2.1-1-4.2-2.1-6.2-3.1c-5.1-1.8-10.3-3.6-16-5.6
					c0-6.3,0.1-13.4-0.1-20.5c0-1.3-1.2-2.5-1.8-3.8c-5.7,0-11.3-0.1-17-0.1c1.2-0.3,2.5-0.7,3.7-0.7c9.7-0.1,19.5-0.2,29.2,0.1
					C325,192.4,329,193.4,333,194z"/>
				<path class="st30" d="M330.6,369.9c-0.9,0-1.6,0-2.6,0c-0.1,0-0.1,0-0.2,0c-1.9-1-2.9-1.8-2.3-4.8c1.1-5.3,1-10.8,1.4-16.2
					c0.2-2.8,0-5.6,0.1-8.5c0.3-7.1,1.1-14.2,0.7-21.3c-0.6-11.8-1.8-23.6-2.9-35.5c-0.9-9.7-1.9-19.3-3.1-29
					c-0.3-2.2-0.8-5-2.3-6.3c-3.6-3.2-7.7-5.9-11.7-8.7c-0.3-0.6-0.6-1.2-0.9-1.8v-6.6c0-0.1,0.1-0.2,0.2-0.2
					c8.1-0.2,14.3,2.2,19.7,6.9c0,0,0.1,0.1,0.1,0.1c0.6,4.6,1.4,9.1,1.9,13.7c3.5,31.9,3.9,64,2.9,96.1c-0.2,6.8-0.7,13.5-1.1,20.3
					C330.6,368.2,330.6,369.3,330.6,369.9z"/>
				<path class="st31" d="M322,423c3-0.7,6-1.4,9-2.1c1.9,9.1,1.7,18.1-1.3,26.9c-0.6,1.9-1.4,3.7-2.1,5.5c4.6,5.4,4.8,7.7,1.4,11.3
					c-1.6-4.2-5.7-4.2-9.5-6c-0.2,1.8-0.3,3.1-0.5,4.3l0,0c-5.2-2-10.4-1.9-15.9-1.5c-6.4,0.5-12.3,2-18,4.4c-1-0.7-2-1.4-3-2.1
					c0.3-0.4,0.5-1,0.9-1.2c10.1-4.8,20.4-8.3,31.8-5c1.2,0.3,2.5,0,4,0c0-2.4,0-4.3,0-6.1c-10.2-3.1-24.5-2.1-33.6,2.2
					c0.3-3.1,2.7-3.5,5-3.9c9.7-1.7,19.5-3.2,29.5-0.1C322.6,440.9,321.9,431.9,322,423z"/>
				<path class="st32" d="M327,238c-5.5-4.7-11.8-7.1-20-6.9c0,2.4,0,4.7,0,6.9c-0.7-0.3-1.3-0.7-2-1l0,0c0-1.8,0-3.6,0-5.1
					c-3.8-2.3-8.6,1.1-12-3.9c2.5-0.4,4.5-0.9,6.5-1c5.7-0.2,6.1-0.7,4.8-7.1c-5.5,1.3-11,2.6-16.4,3.9c-0.1-0.4-0.2-0.7-0.3-1
					c5.6-1.5,11.3-3,17.5-4.7c0-8.2,0-16.6,0-25c0.6,1.3,1.8,2.5,1.8,3.8c0.2,7.1,0.1,14.2,0.1,20.5c5.7,2,10.9,3.8,16,5.6
					c-3.8-1-7.6-2.1-11.4-2.8c-1.7-0.3-4.1-1.2-4.6,2c-0.4,2.8,1,3.9,3.3,4.4c0.5,0.1,1,0.2,1.4,0.3c3.9,1.1,8,1.8,11.7,3.5
					c2.3,1.1,3.8,3.7,5.6,5.6C328.4,236.7,327.7,237.4,327,238z"/>
				<path class="st30" d="M329.1,236.1c-1.9-1.9-3.4-4.6-5.6-5.6c-3.6-1.7-7.8-2.4-11.7-3.5c-0.5-0.1-1-0.2-1.4-0.3
					c-2.4-0.5-3.8-1.7-3.3-4.4c0.5-3.2,2.9-2.3,4.6-2c3.9,0.7,7.6,1.9,11.4,2.8c2.1,1,4.2,2.1,6.2,3.1c0.3,0.7,0.4,1.6,0.9,2.2
					C332.9,231.4,332.4,233.9,329.1,236.1z"/>
				<path class="st33" d="M319,463c0.1-1.2,0.3-2.5,0.5-4.3c3.7,1.8,7.9,1.8,9.5,6c-0.2,0.3-0.5,0.4-0.8,0.4
					C325.1,464.4,322,463.7,319,463z"/>
				<path class="st27" d="M283.8,454.9c0.4-0.3,0.9-0.7,1.3-1c9.1-4.3,23.4-5.3,33.6-2.2c0,1.8,0,3.7,0,6.1c-1.5,0-2.8,0.3-4,0
					c-11.4-3.3-21.7,0.2-31.8,5c-0.4,0.2-0.6,0.8-0.9,1.2C279.9,459.5,280.2,457.8,283.8,454.9z"/>
				<path class="st34" d="M307,239c0,43,0,86,0,129.1c-0.7,0-1.3,0-2,0.1c0-43.7,0-87.4,0-131.1c0.7,0.3,1.3,0.7,2,1
					C307,238.3,307,238.7,307,239z"/>
				<path class="st35" d="M330.6,368.2"/>
			</g>
		</g>
		<g>
			<path class="st36" d="M395.7,212.1c5.9,3.3,12.1,6.1,17.6,9.9c11.8,8,23.4,16.2,34.7,24.8c4.7,3.6,8.3,8.6,12.9,12.5
				c8.6,7.2,15.6,15.8,21.8,25c5.9,8.8,11.3,18,16.9,26.9c1,1.6,2.2,3.2,3.4,4.8c0.3,3.8,0.6,7.6,0.9,11.4c1.2,11.7,2.3,23.4,3.7,35
				c0.3,2.6-0.1,4.2-2.2,5.9c-3.3,2.7-3.2,4.4-0.5,7.8c0.6,0.4,1.2,0.8,1.8,1.1c-0.4,1.6-0.5,3.2-1.1,4.7c-4.3,12.6-4.3,25,1.4,37.2
				c-0.6,1.2-1,2.6-1.8,3.7c-2.3,3.2-2.1,6.2,0.8,9.1c0.7,0.4,1.4,0.8,2,1.2c-1.5,17.7-3.1,35.4-4.3,53.1
				c-0.6,9.3-0.6,18.6-0.9,27.9c-0.4-2.4-0.9-4.8-1.1-6c-9,12.5-17.7,26.1-27.9,38.3c-13.6,16.2-30.4,29-48.5,39.9
				c-6.1,3.6-12.7,6.3-18.9,9.7c-1.5,0.8-4.9,0.6-3.4,4.1c-13.2-0.7-26.5-1.4-39.7-1.9c-9.9-0.4-19.9-0.6-29.8-1
				c-1.2,0-2.4-0.7-3.6-1.1c0.6-11.9,1.6-23.9,1.9-35.8c0.2-13.5,0.1-27-0.6-40.4c-0.9-16.7-2.6-33.4-3.8-50.1
				c-0.1-1.5,0.6-3.1,0.9-4.6c0.4,0,0.6-0.1,0.8-0.4c3.4-3.5,3.1-5.8-1.4-11.3c0.7-1.8,1.5-3.7,2.1-5.5c3-8.8,3.3-17.8,1.3-26.9
				c0.6-0.3,1.1-0.7,1.7-0.9c36.8-9.4,73.6-18.7,110.4-28.2c12.4-3.2,24.6-6.6,37-9.9c1.6-0.7,3.2-1.4,4.9-2.1
				c-1.4-0.3-2.8-0.7-4.3-0.8c-4.5-0.2-9-0.1-13.5-0.4c-22.5-1.5-45-3.2-67.5-4.7c-14.1-0.9-28.2-1.5-42.3-2.3
				c-7.9-0.5-15.9-1.1-23.8-1.9c-4.2,1.6-3.1-1.7-3.1-1.7s0.9-13.6,1.1-20.4c1-32.1,0.6-64.1-2.9-96.1c-0.5-4.6-1.2-9.2-1.9-13.8
				c0.7-0.6,1.4-1.3,2.1-1.9c3.3-2.2,3.9-4.7,1.1-7.8c-0.5-0.6-0.6-1.5-0.9-2.2c0.7-1.5,1.6-2.9,1.9-4.5c0.6-3.7,2.4-5,6.3-5
				c6.3,0,12.5-1,18.8-1.5c11.8-0.6,23.6-1.1,35.4-1.8C393,213.3,394.3,212.5,395.7,212.1z"/>
			<path class="st36" d="M106.9,348c1.7-4.4,3.3-8.9,5-13.3c3-7.8,6-15.7,9-23.5c4.1-10.8,10.2-20.5,16.6-30c2.6-4,5.7-7.7,9.2-12.5
				c0.1,2.5,0.4,4,0.3,5.5c-0.3,5.4,1.8,9.9,4.3,14.5c5,8.9,18.3,14.4,29.9,10.8c16.3-5,27.1-16.3,35.6-30.2
				c4.3-7,6.6-14.7,6.3-23.2c-0.4-10.9-4.9-19.1-14.8-24c-1.3-0.6-2.6-1.4-4.8-2.6c5.1-2.7,9.5-5,13.8-7.3c0.6,0.3,1.1,0.8,1.7,0.9
				c12.9,0.7,25.8,1.4,38.7,2.1c5.8,0.5,11.5,1.5,17.3,1.4c3.7-0.1,4.9,1.7,5.8,4.5c0.4,3.2,2.6,6.4-0.4,9.6c-0.5,0.6,0.9,3,1.5,4.6
				c0.7,0.6,1.4,1.2,2.1,1.8c-0.7,10.6-1.6,21.1-2.2,31.7c-1,18.1-2.4,36.2-2.4,54.3c0,16.9,1.5,33.9,2.4,50.8
				c-19.4,4.9-38.7,9.8-58.1,14.8c-7.3,1.9-14.5,4.2-21.8,6.3c-10.3,2.4-20.6,4.6-30.9,7.2c-12.5,3.1-24.9,6.5-37.3,9.8
				c-2.8,0.8-5.5,1.6-8.3,2.4c0.1,0.2,0.1,0.5,0.2,0.7c1.8,0,3.6,0,5.4,0c1.5,0.3,2.9,0.7,4.4,0.8c19.9,1.2,39.7,2.3,59.6,3.4
				c0.6,0.2,1.2,0.6,1.8,0.7c13.1,0.8,26.1,1.4,39.1,2.2c14.7,0.9,29.4,2,44.1,3c-0.6,9.3-0.3,18.4,3.8,27c0.4,0.8,0,1.9,0,2.9
				c-3.6,2.9-3.9,4.6-1.7,9c1,0.7,2,1.4,3,2.1c-5.8,43.5-6.3,87.2-3.2,131c-18.6,0.7-37.3,1.4-55.9,2.1c3.4-0.5,6.8-1.1,11.2-1.8
				c-1.1-0.6-1.5-0.8-1.9-1c-19.2-7.7-36.1-19.3-51.1-33c-14.8-13.5-29.3-27.5-41.3-43.8c-10.2-13.8-19-28.4-25.2-44.4
				c-4.3-10.9-7.7-22.1-11.7-33.9c0,2.7,0,4.8,0,6.9c-0.7-4.7-1.4-9.4-1.9-14c-0.1-0.6,0.7-1.4,1.1-2.1c0.4,0.1,0.6-0.1,0.8-0.4
				c3.5-3.6,3.2-6.3-1.4-11c0.8-2.2,1.7-4.4,2.4-6.8c3.2-11,3.2-21.8-0.9-32.6c-0.5-1.3-0.5-2.8-0.8-4.2c0.6-0.4,1.2-0.8,1.7-1.2
				c2.7-3.2,2.7-4.9-0.6-7.6c-1.8-1.5-2.9-2.9-2.5-5.3C104.9,358,105.9,353,106.9,348z"/>
			<g>
				<path class="st37" d="M106.9,348c0.7-17,1.6-34.1,2.1-51.1c0.3-12.3,0.1-24.6,0.1-36.8c0.3,1.6,0.8,3.1,0.8,4.7
					c0.1,5.1,0,10.2,0,15.5c0.6-0.4,1-0.4,1.1-0.7c6.6-12.4,15.3-23.3,24.7-33.6c10.7-11.7,21.8-23.4,35.3-32.1
					c1.6-1.1,3.8-2.2,2.9-5c2.4-0.8,5.2-1.1,7.2-2.5c26.2-17.5,55.1-28.3,85.8-34.4c19.2-3.8,38.6-4,57.9-2.7
					c23.7,1.6,46.8,7.2,68.8,16.5c13.9,5.9,27.3,12.6,39.8,21.1c1.8,1.2,4.2,1.3,6.4,1.9c-1.4,3,1.3,3.7,2.8,4.9
					c5,4,10.6,7.4,15.3,11.8c15.2,14.3,29.5,29.5,40.9,47.2c0.8,1.2,1.6,2.3,3.1,4.4c0-4-0.1-6.8,0-9.5c0.2-3.6,0.6-7.1,0.9-10.7
					c0,15.2,0.1,30.4,0.1,45.6c0,4.5,0,8.9,0,13.4c-1.1-1.6-2.3-3.1-3.4-4.8c-5.6-9-11-18.1-16.9-26.9c-6.2-9.2-13.2-17.8-21.8-25
					c-4.6-3.9-8.2-8.9-12.9-12.5c-11.3-8.6-23-16.9-34.7-24.8c-5.5-3.8-11.7-6.6-17.6-9.9c-8-3.2-15.8-6.6-23.9-9.4
					c-12.6-4.4-25.5-7.7-38.8-8.7c-4-0.6-8-1.6-12-1.7c-9.7-0.2-19.5-0.1-29.2-0.1c-1.2,0-2.5,0.5-3.7,0.7c-2.7,0.3-5.4,0.6-8.1,1
					c-1.8,0.1-3.6,0.1-5.4,0.4c-19.9,3.2-39,9.3-57.3,17.8c-4.4,2.3-8.8,4.6-13.8,7.3c2.2,1.2,3.5,2,4.8,2.6
					c9.9,4.9,14.4,13.1,14.8,24c0.3,8.5-2,16.2-6.3,23.2c-8.5,13.9-19.3,25.1-35.6,30.2c-11.6,3.6-24.9-1.9-29.9-10.8
					c-2.6-4.6-4.6-9.1-4.3-14.5c0.1-1.5-0.1-3-0.3-5.5c-3.6,4.8-6.6,8.5-9.2,12.5c-6.4,9.5-12.5,19.2-16.6,30
					c-2.9,7.9-6,15.7-9,23.5C110.2,339.1,108.6,343.6,106.9,348z"/>
				<path class="st38" d="M198,601c1.1-0.5,2.1-1.1,2.9-1.5c-7.6-4.7-15.6-9-23.1-14.2c-16.6-11.6-31.6-25.1-44.7-40.6
					c-8.3-9.9-16.6-19.8-22.5-31.4c-0.3-0.5-1-0.8-1.5-1.3c-1.1-21.3-2.1-42.6-3.2-63.9c0-2.1,0-4.2,0-6.9
					c4.1,11.8,7.5,23,11.7,33.9c6.3,16,15.1,30.5,25.2,44.4c12,16.3,26.5,30.3,41.3,43.8c15.1,13.7,31.9,25.3,51.1,33
					c0.4,0.2,0.8,0.5,1.9,1c-4.4,0.7-7.8,1.2-11.2,1.8C216.7,599.7,207.3,600.4,198,601z"/>
				<path class="st38" d="M502.9,518c-0.9,0.4-2,0.5-2.5,1.2c-5.1,6.7-9.6,13.9-15.2,20.2c-9.4,10.4-19.1,20.7-29.4,30.2
					c-8,7.3-17,13.7-25.8,20c-5.4,3.8-11.4,6.7-17.1,10c1,0.5,2.1,1.1,3.2,1.6c-4.3-0.3-8.7-0.7-13-1c-1.5-3.5,1.9-3.3,3.4-4.1
					c6.3-3.3,12.9-6.1,18.9-9.7c18.1-10.9,34.9-23.7,48.5-39.9c10.3-12.2,18.9-25.8,27.9-38.3c0.2,1.3,0.7,3.6,1.1,6
					C502.9,515.3,502.9,516.7,502.9,518z"/>
			</g>
			<g>
				<path class="st0" d="M480.1,382.1c-12.3,3.3-24.6,6.7-37,9.9c-36.8,9.4-73.6,18.8-110.5,28.2c-0.6,0.2-1.1,0.6-1.7,0.9
					c-3,0.7-6,1.4-9,2.1c-4,1-8,1.9-12,2.9c-0.9-9.1-1.9-18.3-2.9-27.8c10.6-1.1,20.7-2.1,30.9-3.1c8.7-0.8,17.5-1.3,26.2-2.1
					c12.1-1.2,24.3-2.7,36.4-3.9c12.3-1.2,24.7-2,37-3.1c4.6-0.4,9.2-0.9,13.8-1.3C461.1,383.8,470.6,382.9,480.1,382.1z"/>
				<path class="st0" d="M203.1,408c10.5-1,21-2,31.5-3c8.5-0.9,17-1.9,25.6-2.8c7.2-0.8,14.5-1.5,21.7-2.1
					c7.4-0.6,14.8-1.1,22.9-1.8c0.7,6.4,1.4,12.9,2.2,19.3c0.3,2.8,0.6,5.6,0.9,8.4c-0.8,0.2-1.6,0.7-2.3,0.7
					c-8.5-0.5-17.1-1.1-25.6-1.6c-14.7-1-29.4-2-44.1-3c-13-0.8-26.1-1.5-39.1-2.2c-0.6,0-1.2-0.4-1.8-0.7c2.9-0.1,5.8-0.3,8.9-0.4
					C203.6,414.8,203.3,411.4,203.1,408z"/>
				<path class="st0" d="M281.8,373.8c7-1.6,14.1-3.2,21.1-4.8c0.5,8.7,1.1,17.4,1.7,26.8c-2.8,0.4-5.8,0.9-8.9,1.2
					c-9.2,1-18.4,1.9-27.6,2.8c-4.4,0.4-8.9,0.8-13.3,1.2c-12.4,1-24.7,2-37,3.1c-4.9,0.5-9.8,1.3-14.7,1.9
					c-0.4-3.7-0.8-7.4-1.2-11.1c7.3-2.1,14.5-4.4,21.8-6.3C243.1,383.6,262.4,378.8,281.8,373.8z"/>
				<path class="st0" d="M333.7,369.9c7.9,0.7,15.9,1.4,23.8,1.9c14.1,0.8,28.2,1.4,42.3,2.3c22.5,1.5,45,3.2,67.5,4.7
					c4.5,0.3,9,0.2,13.5,0.4c1.4,0.1,2.8,0.5,4.3,0.8c-16,1.3-31.9,2.6-47.9,4c-14.1,1.3-28.3,2.7-42.4,4c-12.7,1.1-25.4,2-38,3.1
					c-4.1,0.3-8.2,0.7-12.3,1.1c-9.9,1-19.7,1.9-29.6,2.9c-2.4,0.2-4.8,0.5-7.6,0.9c-0.4-4.2-0.7-8-1.2-11.7
					c-0.6-5.1-1.3-10.1-1.9-15.2c0.3-0.3,0.6-0.6,1-0.9c0.7,0,1.3,0,2-0.1c7,0.6,18.8,1.5,20,1.5C329.1,369.7,331,369.8,333.7,369.9
					z"/>
				<g>
					<path class="st39" d="M304.1,369c0.6,5.1,1.3,10.1,1.9,15.2c0.4,3.7,0.8,7.5,1.2,11.7c2.8-0.3,5.2-0.6,7.6-0.9
						c9.9-1,19.7-1.9,29.6-2.9c4.1-0.4,8.2-0.8,12.3-1.1c12.7-1,25.4-2,38-3.1c14.1-1.3,28.3-2.7,42.4-4c16-1.4,31.9-2.7,47.9-4
						c-1.6,0.7-3.2,1.4-4.9,2.1c-9.5,0.9-19.1,1.7-28.6,2.6c-4.6,0.4-9.2,0.9-13.8,1.3c-12.4,1-24.7,1.9-37,3.1
						c-12.2,1.1-24.3,2.7-36.4,3.9c-8.7,0.9-17.5,1.3-26.2,2.1c-10.2,0.9-20.3,2-30.9,3.1c1,9.6,1.9,18.7,2.9,27.8
						c-0.7,0-1.4,0-2.1,0.1c-0.3-2.8-0.6-5.6-0.9-8.4c-0.7-6.5-1.5-13-2.2-19.3c-8.2,0.6-15.6,1.1-22.9,1.8
						c-7.2,0.6-14.5,1.3-21.7,2.1c-8.5,0.9-17,2-25.6,2.8c-10.5,1.1-21,2-31.5,3l-0.2,0c0-0.7,0-1.3,0-2l0.2,0
						c4.9-0.6,9.8-1.5,14.7-1.9c12.3-1.1,24.7-2.1,37-3.1c4.5-0.4,8.9-0.7,13.3-1.2c9.2-0.9,18.4-1.8,27.6-2.8
						c3-0.3,6.1-0.8,8.9-1.2c-0.6-9.4-1.1-18.1-1.7-26.8C303.3,369,303.7,369,304.1,369z"/>
					<path class="st1" d="M203.1,408c0.3,3.4,0.5,6.8,0.8,10.8c-3.1,0.1-6,0.3-8.9,0.4c-19.9-1.1-39.7-2.2-59.6-3.4
						c-1.5-0.1-2.9-0.5-4.4-0.8c5.5-0.6,10.9-1.4,16.4-1.9c8.5-0.8,17-1.4,25.5-2.2c10-0.9,19.9-1.9,29.9-2.9L203.1,408z"/>
					<path class="st1" d="M201.9,394.9c0.4,3.7,0.8,7.4,1.2,11.1l-0.2,0c-13.8,1-27.5,2-41.3,3.1c-4.2,0.4-8.4,1.3-12.6,1.7
						c-5.1,0.5-10.1,0.7-15.2,1c12.4-3.3,24.9-6.6,37.3-9.8C181.3,399.5,191.6,397.3,201.9,394.9z"/>
					<path class="st40" d="M133.7,411.9c5.1-0.3,10.2-0.5,15.2-1c4.2-0.4,8.4-1.4,12.6-1.7c13.8-1.1,27.5-2.1,41.3-3.1
						c0,0.7,0,1.3,0,2c-10,1-19.9,2-29.9,2.9c-8.5,0.8-17,1.4-25.5,2.2c-5.5,0.5-11,1.3-16.4,1.9c-1.8,0-3.6,0-5.4,0
						c-0.1-0.2-0.1-0.5-0.2-0.7C128.2,413.5,131,412.7,133.7,411.9z"/>
				</g>
			</g>
		</g>
		<g>
			<path class="st41" d="M326,76.9c-0.1-5.6,0.8-10.7,4.7-15.2c5.7-6.7,13.6-7.1,22-4.7c8.8,2.6,12.3,9.7,12.3,18.4
				c0,3.7-0.7,7.6-1.8,11.1c-3.4,10.4-13.9,12.6-21.4,11.1c-10.1-2-15.7-8.9-15.8-18.8C326,78.3,326,77.6,326,76.9z M331.3,77
				c0,0.2,0,0.4,0,0.5c1,3.4,2,7.9,3.6,12.2c2.6,6.7,17.4,6.8,20.6,2.2c4.6-6.7,5-22.4-0.3-29c-3.2-4-7.6-5.3-12.5-4.8
				c-4.9,0.5-8.5,2.9-9.7,7.9C332.4,69.2,332.1,72.4,331.3,77z"/>
			<path class="st41" d="M399.8,60.8c2.7,0.2,5.4,0.5,8.1,0.7c0.6,1.4,0.7,1.7,1.3,3c-1.6,1.7-1.3,4.2-1.2,6.7
				c0.1,6.3,0.4,12.7-0.1,19c-0.6,8.3,10.5,12.8,16.2,9.5c1.7-0.9,3.5-3.2,3.6-5c0.7-8.6,1-17.2,1-25.8c0-1-0.8-2-1.9-3.2
				c-0.8-0.9-0.1-2.2,1.1-2.1c2,0.2,3.8,0.4,5.7,0.7c1,0.1,1.4,1.3,0.8,2.1c-3.1,3.7-1.5,8.5-2.3,12.5c-0.7,3.9-0.1,8-0.2,12
				c-0.1,9.6-6.4,14.7-16.2,12.6c-10.2-2.2-13.7-7-13.8-17.6c0-5.5-0.1-11,0.1-16.5c0.1-3.1-0.2-5.9-3.8-7.4
				c0.1-0.1,0.1-0.3,0.2-0.4C398.8,61,399.3,60.7,399.8,60.8z"/>
			<path class="st41" d="M220.2,60.1c3.5-0.4,7-0.8,10.5-1.2c0.5-0.1,0.9,0.1,1.2,0.5c0.1,0.2,0.3,0.4,0.4,0.6
				c-4.7,1.2-4.4,4.6-4.2,7.8c0.3,7.6,0.3,15.3,1.1,22.8c0.5,4.8,3.7,6.7,8.4,6.3c7.4-0.5,11.4-4.7,11.5-12.3
				c0.1-6.2-0.1-12.3,0.1-18.5c0.1-2.5,0.1-4.8-1.3-6.7c-0.6-0.9,0-2,1-2h4.1c1,0,1.6,1.1,1.1,2c-1.2,1.9-0.8,4.3-0.9,6.7
				c-0.2,7.5-0.1,15-1,22.3c-0.9,7.4-4.6,9.8-13.5,11.5c-1.1,0.2-2.3,0-3.5,0c-8,0-11.8-3.7-11.9-11.9c-0.1-6.8-0.1-13.7,0-20.5
				c0.1-3-0.1-5.6-4.1-6.3c0.1-0.2,0.2-0.4,0.3-0.6C219.4,60.4,219.7,60.1,220.2,60.1z"/>
			<path class="st41" d="M303.5,80.1c-1.3,7.4-1,10.7,2,13.7c0.8,0.8,0.3,2.1-0.8,2.1c-2.7,0.2-5.3,0.1-7.8,0c-1-0.1-1.6-1.2-1-2
				c1.3-1.8,1.2-4,1.2-6.4c-0.1-8,0-16,0-24c0-3,0.7-6.2-4.2-6.8c1.2-0.9,1.5-1.5,1.9-1.5c6.1,0.2,12.3-0.3,18.3,0.8
				c6.5,1.2,8.8,5.8,8,12.8c-0.7,5.6-5.3,9.9-11.1,10.1c-1.7,0.1-3.3,0-5.1,0C304.1,79,303.6,79.4,303.5,80.1z M303,75.4
				c0,0.6,0.5,1.1,1.1,1.3c4.1,0.7,7.3-0.1,9.6-3.2c2-2.7,2.2-10.9-0.1-12.8c-2.1-1.7-5.2-2.3-7.9-2.9c-0.7-0.1-2.5,1.7-2.5,2.7
				C302.9,65.5,303,70.4,303,75.4z"/>
			<path class="st41" d="M287.6,91.2c-0.2,1.6-0.4,3.2-0.6,4.9c-0.1,0.6-0.6,1.1-1.3,1.1h-21.1c-1,0-1.7-1.2-1-2
				c1.8-2.2,1.4-5.2,1.4-8c0-7.3-0.1-14.7,0-22c0-2.4,0-4.5-1.6-6.1c-0.7-0.7-0.4-1.9,0.6-2.1c7.1-1.6,14.1-0.7,21.3-0.8
				c0.8,0,1.4,0.7,1.3,1.5c-0.1,0.7-0.2,1.5-0.3,2.1c-1.8,0.2-1.6,0.2-3.4,0.3c-0.1-0.3-0.2-0.7-0.4-1c-0.2-0.6-0.7-0.9-1.3-0.8
				c-3.1,0.3-6.3,0.7-9.7,1c-0.6,0.1-1.1,0.6-1.1,1.3v12.7c0,0.6,0.4,1.1,0.9,1.2c4.1,1.1,6.1,1,8.1-1.2c0.8-0.9,2.2-0.3,2.2,0.8
				v3.6c0,1.2-1.4,1.7-2.2,0.8c-1.7-1.8-4-2-6.8-1c-1.8,0.7-2.7,1.5-2.6,3.5c0.1,4,0.1,7.9,0,12.6c0,0.7,0.6,1.3,1.3,1.3
				c3.4,0,6.5,0.1,9.7,0c2.8-0.1,3.3-2.2,4.2-4.4C285.7,89.2,287.8,89.7,287.6,91.2z"/>
			<path class="st41" d="M199.3,96.4c3.2-9.5,6.5-19,9.4-28.7c0.4-1.2-0.5-2.8-1.2-4.6c-0.3-0.8,0.2-1.6,1-1.7
				c1.9-0.3,3.9-0.5,6-0.8c1.1-0.1,1.8,1.1,1.2,2c-7.6,11-9,24.4-14.8,36c-0.7,1.4-1.7,2.7-2.7,4c-0.5,0.7-1.5,0.7-2,0
				c-0.9-1.2-1.8-2.4-2.4-3.7c-3.3-8.5-6.5-17-9.7-25.5c-1.4-3.7-1.8-4.7-3.9-6.1c-1-0.6-0.6-2.1,0.5-2.3c2.7-0.4,5.1-0.8,7.5-1.1
				c1-0.2,1.8,0.9,1.3,1.8c-1.7,3.2,0.2,6.4,1.3,9.6c2.4,7,4.8,14.1,7.3,21.1C198.6,96.3,198.9,96.4,199.3,96.4z"/>
			<path class="st41" d="M391.9,65.8c-0.3,1.2-2,1.3-2.4,0.1c0,0,0,0,0,0c-1.3-3.9-4.1-6.2-7.9-5.4c-1.9,0.4-4.5,1.7-5.1,3.3
				c-1.1,2.6-1.6,6.1,1.1,8.3c3.7,3,8,5.4,11.5,8.6c2.1,2,4.2,4.9,4.7,7.6c1.3,6.9-3,11.5-10.1,11.6c-2.1,0-4.3-0.3-6.4-0.7
				c-7-1.6-8.3-3-6.2-9c0.4-1.1,2-1.1,2.4,0c0,0.1,0.1,0.2,0.1,0.3c1.7,6,5.5,8.3,11.4,6.2c1.6-0.6,3.6-2.7,3.6-4.1
				c-0.1-2.6-1-5.5-2.5-7.6c-1.4-1.9-4.1-2.7-6.2-4.1c-3.6-2.3-7.3-4.6-8.9-9c-2.7-7.4,1.6-13.8,9.6-14c1,0,2,0,3,0
				C391.5,58.1,393.4,59.3,391.9,65.8z"/>
		</g>
	</g>
</g>
</svg>
